<?xml version="1.0" encoding="utf-8"?>
<!-- Generator: Adobe Illustrator 16.0.0, SVG Export Plug-In . SVG Version: 6.00 Build 0)  -->
<!DOCTYPE svg PUBLIC "-//W3C//DTD SVG 1.1//EN" "http://www.w3.org/Graphics/SVG/1.1/DTD/svg11.dtd">
<svg version="1.1" id="Camada_1" xmlns="http://www.w3.org/2000/svg" xmlns:xlink="http://www.w3.org/1999/xlink" x="0px" y="0px"
	 width="845.539px" height="675.068px" viewBox="0 0 845.539 675.068" enable-background="new 0 0 845.539 675.068"
	 xml:space="preserve">
<rect x="1022.378" y="1067.502" width="1920" height="1080"/>
<g>
	<defs>
		<rect id="SVGID_1_" x="1022.377" y="1061.34" width="1920" height="1080"/>
	</defs>
	<clipPath id="SVGID_2_">
		<use xlink:href="#SVGID_1_"  overflow="visible"/>
	</clipPath>
	<path clip-path="url(#SVGID_2_)" fill-rule="evenodd" clip-rule="evenodd" fill="#FFFFFF" d="M1989.177,2064.667h-10.199h-3.401
		c-4.674,0-8.5,3.764-8.5,8.364v10.036v13.383c0,4.599,3.826,8.362,8.5,8.362h5.1c4.675,0,8.5-3.764,8.5-8.362v-5.019h8.5v-8.364
		v-1.672v-8.364C1997.677,2068.43,1993.852,2064.667,1989.177,2064.667 M1989.177,2078.048v3.347v1.882v1.464h-1.479h-0.01h-6.671
		v10.369c0,0.737-0.612,1.34-1.36,1.34h-2.72c-0.748,0-1.36-0.603-1.36-1.34v-11.833v-8.782v-0.127c0-0.735,0.612-1.337,1.36-1.337
		h2.72h0.007h8.024c0.819,0,1.488,0.657,1.488,1.464V2078.048z"/>
	<path clip-path="url(#SVGID_2_)" fill="#FFFFFF" d="M2000.598,1268.47l10.461,28.96h0.713l-10.951-30.319
		C2000.756,1267.567,2000.678,1268.018,2000.598,1268.47"/>
	<path clip-path="url(#SVGID_2_)" fill="#FFFFFF" d="M2000.131,1267.178c0.07-0.49,0.129-0.981,0.182-1.476l-14.021-38.821h-0.183
		l-0.27,0.728L2000.131,1267.178z"/>
	<polygon clip-path="url(#SVGID_2_)" fill="#FFFFFF" points="1979.373,1226.916 1982.377,1226.9 1979.176,1226.884 
		1978.915,1227.61 1982.019,1236.041 1982.377,1235.071 	"/>
	<path clip-path="url(#SVGID_2_)" fill="#FFFFFF" d="M2021.886,1297.266c-1.053-0.095-1.851-0.303-2.75-0.716
		c-0.825-0.378-1.652-0.925-2.46-1.623c-3.322-2.877-16.648-39.632-21.665-53.468c-0.781-2.151-1.407-3.88-1.831-5.029
		c-1.175-3.204-1.177-5.653-0.008-7.278c1.422-1.979,4.274-2.322,5.943-2.338l0.142-0.001l-0.002-0.659h-0.002h-0.142l-16.735,0.088
		l3.483,0.018l0.315,0.441l-0.067,0.18h0.183l8.944-0.048c-0.998,0.392-1.939,1.002-2.613,1.94c-1.303,1.813-1.327,4.462-0.074,7.88
		c0.424,1.148,1.051,2.875,1.83,5.027c1.21,3.338,2.777,7.661,4.523,12.407c1.178,3.318,1.698,6.323,1.594,9.187
		c-0.029,0.821-0.099,1.627-0.183,2.427c-0.053,0.496-0.108,0.988-0.182,1.477c-0.489,3.39-1.394,6.651-2.421,9.973
		c-1.814-3.362-4.958-5.765-8.523-6.499c1.128-0.539,1.967-1.319,2.501-2.334c1.493-2.84,0.322-7.009-0.866-10.324l-8.087-21.953
		l-0.357,0.968l7.811,21.205c1.141,3.189,2.277,7.186,0.901,9.804c-0.631,1.198-1.713,2.001-3.312,2.457l0.065,0.643
		c4.077,0.368,7.738,3.055,9.58,6.949c-0.179,0.569-0.36,1.144-0.542,1.718l-5.664,17.875l0.322,0.428h32.452l0.024-0.657
		C2024.016,1297.431,2022.529,1297.327,2021.886,1297.266 M1991.997,1297.43l5.527-17.448c0.103-0.321,0.202-0.642,0.305-0.964
		c0.003,0.007,0.006,0.017,0.009,0.025l6.733,18.387H1991.997z M2011.772,1297.43h-0.713h-5.774l-6.815-18.612
		c-0.102-0.27-0.211-0.535-0.328-0.796c0.97-3.104,1.885-6.278,2.457-9.551c0.079-0.453,0.158-0.905,0.223-1.36
		c0.179-1.255,0.299-2.525,0.347-3.812c0.043-1.161-0.015-2.34-0.173-3.555c5.872,15.775,12.837,33.597,15.236,35.675
		c0.855,0.741,1.737,1.322,2.621,1.727c0.232,0.107,0.458,0.201,0.684,0.284H2011.772z"/>
	<path clip-path="url(#SVGID_2_)" fill="#FFFFFF" d="M1963.933,1267.111l-10.95,30.319h0.714l10.459-28.96
		C1964.078,1268.018,1963.997,1267.567,1963.933,1267.111"/>
	<path clip-path="url(#SVGID_2_)" fill="#FFFFFF" d="M1979.177,1226.883l-0.712-0.004l-14.023,38.822
		c0.053,0.495,0.111,0.988,0.181,1.476l14.292-39.568L1979.177,1226.883z"/>
	<path clip-path="url(#SVGID_2_)" fill="#FFFFFF" d="M1985.84,1227.609l0.268-0.728l0.066-0.18l-0.314-0.441l-3.482-0.019
		l-16.735-0.086h-0.141h-0.003l-0.001,0.656h0.001l0.141,0.002c1.667,0.018,4.522,0.359,5.944,2.338
		c1.168,1.626,1.166,4.076-0.009,7.28c-0.424,1.147-1.051,2.877-1.831,5.027c-5.017,13.839-18.343,50.592-21.665,53.469
		c-0.807,0.698-1.635,1.244-2.461,1.623c-0.9,0.413-1.695,0.621-2.748,0.717c-0.644,0.059-2.13,0.164-2.13,0.164l0.024,0.657h32.453
		l0.32-0.426l-5.663-17.876c-0.182-0.576-0.364-1.147-0.542-1.719c1.843-3.894,5.504-6.581,9.582-6.949l0.063-0.643
		c-1.597-0.455-2.68-1.258-3.311-2.458c-1.376-2.617-0.241-6.614,0.901-9.8l7.811-21.207l0.356-0.968L1985.84,1227.609z
		 M1953.696,1297.43h-0.714h-3.544h-4.219c0.224-0.082,0.451-0.176,0.683-0.284c0.884-0.404,1.766-0.986,2.621-1.726
		c2.4-2.079,9.365-19.9,15.237-35.674c-0.159,1.212-0.214,2.393-0.172,3.553c0.046,1.287,0.167,2.557,0.345,3.812
		c0.065,0.455,0.144,0.907,0.224,1.358c0.571,3.273,1.487,6.449,2.456,9.554c-0.118,0.26-0.227,0.527-0.329,0.798l-6.814,18.609
		H1953.696z M1972.759,1297.43h-12.576l6.733-18.385c0.003-0.009,0.007-0.019,0.011-0.026c0.102,0.321,0.202,0.642,0.303,0.961
		L1972.759,1297.43z M1973.932,1257.996c-1.187,3.313-2.358,7.483-0.865,10.322c0.533,1.015,1.373,1.796,2.503,2.335
		c-3.567,0.734-6.709,3.136-8.526,6.496c-1.027-3.32-1.931-6.58-2.422-9.971c-0.069-0.488-0.127-0.981-0.18-1.475
		c-0.085-0.802-0.153-1.607-0.182-2.428c-0.106-2.865,0.416-5.869,1.592-9.188c1.747-4.745,3.315-9.069,4.525-12.407
		c0.78-2.151,1.407-3.878,1.829-5.028c1.254-3.415,1.229-6.067-0.074-7.881c-0.673-0.935-1.615-1.545-2.615-1.937l8.947,0.047
		l0.713,0.002l3.2,0.018l3.004,0.016l-3.004,8.153l-0.357,0.972L1973.932,1257.996z"/>
</g>
<text transform="matrix(1 0 0 1 1741.2725 1379.3237)"><tspan x="0" y="0" fill="#FFFFFF" font-family="'Brother-1816-Bold'" font-size="29.7352" letter-spacing="8">FU</tspan><tspan x="51.561" y="0" fill="#FFFFFF" font-family="'Brother-1816-Bold'" font-size="29.7352" letter-spacing="8">T</tspan><tspan x="75.229" y="0" fill="#FFFFFF" font-family="'Brother-1816-Bold'" font-size="29.7352" letter-spacing="8">URO LAN</tspan><tspan x="251.498" y="0" fill="#FFFFFF" font-family="'Brother-1816-Bold'" font-size="29.7352" letter-spacing="8">Ç</tspan><tspan x="277.784" y="0" fill="#FFFFFF" font-family="'Brother-1816-Bold'" font-size="29.7352" letter-spacing="8">AM</tspan><tspan x="337.729" y="0" fill="#FFFFFF" font-family="'Brother-1816-Bold'" font-size="29.7352" letter-spacing="8">EN</tspan><tspan x="389.706" y="0" fill="#FFFFFF" font-family="'Brother-1816-Bold'" font-size="29.7352" letter-spacing="8">T</tspan><tspan x="413.405" y="0" fill="#FFFFFF" font-family="'Brother-1816-Bold'" font-size="29.7352">O</tspan></text>
<text transform="matrix(1 0 0 1 1646.251 1428.1914)"><tspan x="0" y="0" fill="#FFFFFF" font-family="'Brother-1816-Book'" font-size="17.3455" letter-spacing="5">PARA </tspan><tspan x="69.486" y="0" fill="#FFFFFF" font-family="'Brother-1816-Book'" font-size="17.3455" letter-spacing="5">M</tspan><tspan x="88.618" y="0" fill="#FFFFFF" font-family="'Brother-1816-Book'" font-size="17.3455" letter-spacing="5">AIS INFO</tspan><tspan x="193.193" y="0" fill="#FFFFFF" font-family="'Brother-1816-Book'" font-size="17.3455" letter-spacing="5">R</tspan><tspan x="207.711" y="0" fill="#FFFFFF" font-family="'Brother-1816-Book'" font-size="17.3455" letter-spacing="5">MAÇÕ</tspan><tspan x="275.185" y="0" fill="#FFFFFF" font-family="'Brother-1816-Book'" font-size="17.3455" letter-spacing="5">E</tspan><tspan x="288.905" y="0" fill="#FFFFFF" font-family="'Brother-1816-Book'" font-size="17.3455" letter-spacing="5">S P</tspan><tspan x="325.972" y="0" fill="#FFFFFF" font-family="'Brother-1816-Book'" font-size="17.3455" letter-spacing="5">R</tspan><tspan x="340.49" y="0" fill="#FFFFFF" font-family="'Brother-1816-Book'" font-size="17.3455" letter-spacing="5">EE</tspan><tspan x="367.964" y="0" fill="#FFFFFF" font-family="'Brother-1816-Book'" font-size="17.3455" letter-spacing="5">NC</tspan><tspan x="399.81" y="0" fill="#FFFFFF" font-family="'Brother-1816-Book'" font-size="17.3455" letter-spacing="5">HA O FO</tspan><tspan x="497.864" y="0" fill="#FFFFFF" font-family="'Brother-1816-Book'" font-size="17.3455" letter-spacing="5">R</tspan><tspan x="512.382" y="0" fill="#FFFFFF" font-family="'Brother-1816-Book'" font-size="17.3455" letter-spacing="5">MULÁ</tspan><tspan x="577.167" y="0" fill="#FFFFFF" font-family="'Brother-1816-Book'" font-size="17.3455" letter-spacing="5">RI</tspan><tspan x="601.017" y="0" fill="#FFFFFF" font-family="'Brother-1816-Book'" font-size="17.3455">O</tspan></text>
<text transform="matrix(1 0 0 1 1727.3237 1467.1494)"><tspan x="0" y="0" fill="#FFFFFF" font-family="'Brother-1816-Book'" font-size="17.3455" letter-spacing="5">E E</tspan><tspan x="36.355" y="0" fill="#FFFFFF" font-family="'Brother-1816-Book'" font-size="17.3455" letter-spacing="5">M</tspan><tspan x="55.487" y="0" fill="#FFFFFF" font-family="'Brother-1816-Book'" font-size="17.3455" letter-spacing="5"> BREVE EN</tspan><tspan x="175.101" y="0" fill="#FFFFFF" font-family="'Brother-1816-Book'" font-size="17.3455" letter-spacing="5">T</tspan><tspan x="188.908" y="0" fill="#FFFFFF" font-family="'Brother-1816-Book'" font-size="17.3455" letter-spacing="5">RA</tspan><tspan x="219.262" y="0" fill="#FFFFFF" font-family="'Brother-1816-Book'" font-size="17.3455" letter-spacing="5">R</tspan><tspan x="233.78" y="0" fill="#FFFFFF" font-family="'Brother-1816-Book'" font-size="17.3455" letter-spacing="5">EMOS E</tspan><tspan x="320.194" y="0" fill="#FFFFFF" font-family="'Brother-1816-Book'" font-size="17.3455" letter-spacing="5">M</tspan><tspan x="339.326" y="0" fill="#FFFFFF" font-family="'Brother-1816-Book'" font-size="17.3455" letter-spacing="5"> </tspan><tspan x="348.207" y="0" fill="#FFFFFF" font-family="'Brother-1816-Book'" font-size="17.3455" letter-spacing="5">C</tspan><tspan x="363.453" y="0" fill="#FFFFFF" font-family="'Brother-1816-Book'" font-size="17.3455" letter-spacing="5">O</tspan><tspan x="380.608" y="0" fill="#FFFFFF" font-family="'Brother-1816-Book'" font-size="17.3455" letter-spacing="5">N</tspan><tspan x="397.208" y="0" fill="#FFFFFF" font-family="'Brother-1816-Book'" font-size="17.3455" letter-spacing="5">TA</tspan><tspan x="426.851" y="0" fill="#FFFFFF" font-family="'Brother-1816-Book'" font-size="17.3455" letter-spacing="5">T</tspan><tspan x="440.658" y="0" fill="#FFFFFF" font-family="'Brother-1816-Book'" font-size="17.3455" letter-spacing="5">O</tspan><tspan x="457.813" y="0" fill="#FFFFFF" font-family="'Brother-1816-Book'" font-size="17.3455">.</tspan></text>
<text transform="matrix(1 0 0 1 1584.6431 1607.5024)"><tspan x="0" y="0" fill="#FFFFFF" font-family="'Brother-1816-Book'" font-size="14.8676" letter-spacing="3">NOM</tspan><tspan x="42.685" y="0" fill="#FFFFFF" font-family="'Brother-1816-Book'" font-size="14.8676">E</tspan></text>
<g>
	<defs>
		<rect id="SVGID_3_" x="1022.377" y="1061.34" width="1920" height="1080"/>
	</defs>
	<clipPath id="SVGID_4_">
		<use xlink:href="#SVGID_3_"  overflow="visible"/>
	</clipPath>
	
		<line clip-path="url(#SVGID_4_)" fill="none" stroke="#FDFDFD" stroke-width="0.929" stroke-miterlimit="10" x1="1556.547" y1="1637.296" x2="1930.254" y2="1637.296"/>
</g>
<text transform="matrix(1 0 0 1 1584.6431 1695.3032)"><tspan x="0" y="0" fill="#FFFFFF" font-family="'Brother-1816-Book'" font-size="14.8676" letter-spacing="3">E</tspan><tspan x="10.868" y="0" fill="#FFFFFF" font-family="'Brother-1816-Book'" font-size="14.8676" letter-spacing="3">-MAI</tspan><tspan x="54.311" y="0" fill="#FFFFFF" font-family="'Brother-1816-Book'" font-size="14.8676">L</tspan></text>
<g>
	<defs>
		<rect id="SVGID_5_" x="1022.377" y="1061.34" width="1920" height="1080"/>
	</defs>
	<clipPath id="SVGID_6_">
		<use xlink:href="#SVGID_5_"  overflow="visible"/>
	</clipPath>
	
		<line clip-path="url(#SVGID_6_)" fill="none" stroke="#FDFDFD" stroke-width="0.929" stroke-miterlimit="10" x1="1556.547" y1="1725.097" x2="1930.254" y2="1725.097"/>
</g>
<text transform="matrix(1 0 0 1 1584.6431 1783.104)"><tspan x="0" y="0" fill="#FFFFFF" font-family="'Brother-1816-Book'" font-size="14.8676" letter-spacing="3">M</tspan><tspan x="15.521" y="0" fill="#FFFFFF" font-family="'Brother-1816-Book'" font-size="14.8676" letter-spacing="3">E</tspan><tspan x="26.39" y="0" fill="#FFFFFF" font-family="'Brother-1816-Book'" font-size="14.8676" letter-spacing="3">NSAGE</tspan><tspan x="87.361" y="0" fill="#FFFFFF" font-family="'Brother-1816-Book'" font-size="14.8676">M</tspan></text>
<text transform="matrix(1 0 0 1 1945.1973 1896.4243)"><tspan x="0" y="0" fill="#FFFFFF" font-family="'Brother-1816-Bold'" font-size="14.8676" letter-spacing="3">E</tspan><tspan x="10.883" y="0" fill="#FFFFFF" font-family="'Brother-1816-Bold'" font-size="14.8676" letter-spacing="3">N</tspan><tspan x="24.219" y="0" fill="#FFFFFF" font-family="'Brother-1816-Bold'" font-size="14.8676" letter-spacing="3">VIA</tspan><tspan x="55.872" y="0" fill="#FFFFFF" font-family="'Brother-1816-Bold'" font-size="14.8676">R</tspan></text>
<g>
	<defs>
		<rect id="SVGID_7_" x="1022.377" y="1061.34" width="1920" height="1080"/>
	</defs>
	<clipPath id="SVGID_8_">
		<use xlink:href="#SVGID_7_"  overflow="visible"/>
	</clipPath>
	
		<line clip-path="url(#SVGID_8_)" fill="none" stroke="#FDFDFD" stroke-width="0.929" stroke-miterlimit="10" x1="1556.547" y1="1812.899" x2="2408.208" y2="1812.899"/>
</g>
<text transform="matrix(1 0 0 1 2062.5962 1607.5024)"><tspan x="0" y="0" fill="#FFFFFF" font-family="'Brother-1816-Book'" font-size="14.8676" letter-spacing="3">TELEFONE PARA CON</tspan><tspan x="193.336" y="0" fill="#FFFFFF" font-family="'Brother-1816-Book'" font-size="14.8676" letter-spacing="3">T</tspan><tspan x="204.278" y="0" fill="#FFFFFF" font-family="'Brother-1816-Book'" font-size="14.8676" letter-spacing="3">A</tspan><tspan x="216.946" y="0" fill="#FFFFFF" font-family="'Brother-1816-Book'" font-size="14.8676" letter-spacing="3">T</tspan><tspan x="227.889" y="0" fill="#FFFFFF" font-family="'Brother-1816-Book'" font-size="14.8676">O</tspan></text>
<text transform="matrix(1 0 0 1 1922.856 1994.937)"><tspan x="0" y="0" fill="#FFFFFF" font-family="'Brother-1816-Book'" font-size="14.8676" letter-spacing="3">6</tspan><tspan x="11.18" y="0" fill="#FFFFFF" font-family="'Brother-1816-Book'" font-size="14.8676" letter-spacing="3">5 361</tspan><tspan x="62.681" y="0" fill="#FFFFFF" font-family="'Brother-1816-Book'" font-size="14.8676" letter-spacing="3">6</tspan><tspan x="73.86" y="0" fill="#FFFFFF" font-family="'Brother-1816-Book'" font-size="14.8676" letter-spacing="3">.71</tspan><tspan x="102.896" y="0" fill="#FFFFFF" font-family="'Brother-1816-Book'" font-size="14.8676" letter-spacing="3">7</tspan><tspan x="114.076" y="0" fill="#FFFFFF" font-family="'Brother-1816-Book'" font-size="14.8676">1</tspan></text>
<text transform="matrix(1 0 0 1 1572.7983 2023.9888)"><tspan x="0" y="0" fill="#FFFFFF" font-family="'Brother-1816-Book'" font-size="14.8676" letter-spacing="3">AV. </tspan><tspan x="37.897" y="0" fill="#FFFFFF" font-family="'Brother-1816-Book'" font-size="14.8676" letter-spacing="3">M</tspan><tspan x="53.404" y="0" fill="#FFFFFF" font-family="'Brother-1816-Book'" font-size="14.8676" letter-spacing="3">IGUEL SUTIL, </tspan><tspan x="181.189" y="0" fill="#FFFFFF" font-family="'Brother-1816-Book'" font-size="14.8676" letter-spacing="3">6</tspan><tspan x="192.369" y="0" fill="#FFFFFF" font-family="'Brother-1816-Book'" font-size="14.8676" letter-spacing="3">.344 / EM FR</tspan><tspan x="310.208" y="0" fill="#FFFFFF" font-family="'Brother-1816-Book'" font-size="14.8676" letter-spacing="3">E</tspan><tspan x="321.076" y="0" fill="#FFFFFF" font-family="'Brother-1816-Book'" font-size="14.8676" letter-spacing="3">NTE AO PA</tspan><tspan x="420.331" y="0" fill="#FFFFFF" font-family="'Brother-1816-Book'" font-size="14.8676" letter-spacing="3">R</tspan><tspan x="431.883" y="0" fill="#FFFFFF" font-family="'Brother-1816-Book'" font-size="14.8676" letter-spacing="3">QU</tspan><tspan x="458.882" y="0" fill="#FFFFFF" font-family="'Brother-1816-Book'" font-size="14.8676" letter-spacing="3">E</tspan><tspan x="469.75" y="0" fill="#FFFFFF" font-family="'Brother-1816-Book'" font-size="14.8676" letter-spacing="3"> </tspan><tspan x="476.471" y="0" fill="#FFFFFF" font-family="'Brother-1816-Book'" font-size="14.8676" letter-spacing="3">M</tspan><tspan x="491.977" y="0" fill="#FFFFFF" font-family="'Brother-1816-Book'" font-size="14.8676" letter-spacing="3">ÃE BON</tspan><tspan x="561.036" y="0" fill="#FFFFFF" font-family="'Brother-1816-Book'" font-size="14.8676" letter-spacing="3">I</tspan><tspan x="568.143" y="0" fill="#FFFFFF" font-family="'Brother-1816-Book'" font-size="14.8676" letter-spacing="3">FÁC</tspan><tspan x="603.81" y="0" fill="#FFFFFF" font-family="'Brother-1816-Book'" font-size="14.8676" letter-spacing="3">I</tspan><tspan x="610.917" y="0" fill="#FFFFFF" font-family="'Brother-1816-Book'" font-size="14.8676" letter-spacing="3">A </tspan><tspan x="630.304" y="0" fill="#FFFFFF" font-family="'Brother-1816-Book'" font-size="14.8676" letter-spacing="3">/</tspan><tspan x="638.957" y="0" fill="#FFFFFF" font-family="'Brother-1816-Book'" font-size="14.8676" letter-spacing="3"> CUIA</tspan><tspan x="690.844" y="0" fill="#FFFFFF" font-family="'Brother-1816-Book'" font-size="14.8676" letter-spacing="3">B</tspan><tspan x="702.455" y="0" fill="#FFFFFF" font-family="'Brother-1816-Book'" font-size="14.8676" letter-spacing="3">Á, M</tspan><tspan x="744.01" y="0" fill="#FFFFFF" font-family="'Brother-1816-Book'" font-size="14.8676">T</tspan></text>
<g>
	<defs>
		<rect id="SVGID_9_" x="1022.377" y="1061.34" width="1920" height="1080"/>
	</defs>
	<clipPath id="SVGID_10_">
		<use xlink:href="#SVGID_9_"  overflow="visible"/>
	</clipPath>
	
		<line clip-path="url(#SVGID_10_)" fill="none" stroke="#FDFDFD" stroke-width="0.929" stroke-miterlimit="10" x1="2034.5" y1="1637.296" x2="2408.208" y2="1637.296"/>
	
		<rect x="1859.836" y="1861.282" clip-path="url(#SVGID_10_)" fill="none" stroke="#FDFDFD" stroke-width="0.929" stroke-miterlimit="10" width="245.081" height="60.565"/>
</g>
<path fill="#FFFFFF" d="M582.107,393.055l91.48,253.254h6.234l-95.768-265.138C583.49,385.159,582.807,389.101,582.107,393.055"/>
<path fill="#FFFFFF" d="M578.025,381.756c0.614-4.283,1.127-8.578,1.588-12.903L456.996,29.362h-1.597l-2.357,6.366L578.025,381.756
	z"/>
<polygon fill="#FFFFFF" points="396.495,29.665 422.768,29.528 394.774,29.388 392.488,35.736 419.633,109.463 422.768,100.982 "/>
<path fill="#FFFFFF" d="M768.271,644.879c-9.207-0.834-16.185-2.652-24.049-6.265c-7.216-3.305-14.449-8.087-21.512-14.193
	c-29.054-25.158-145.59-346.579-189.46-467.574c-6.833-18.809-12.306-33.934-16.013-43.981
	c-10.273-28.016-10.29-49.434-0.068-63.644c12.435-17.307,37.379-20.308,51.975-20.444l1.238-0.01l-0.017-5.764h-0.017h-1.238
	l-146.346,0.769l30.458,0.159l2.759,3.854l-0.59,1.577h1.598l78.218-0.418c-8.728,3.428-16.96,8.762-22.853,16.963
	c-11.392,15.855-11.605,39.02-0.648,68.91c3.706,10.039,9.188,25.141,16.003,43.959c10.582,29.194,24.289,66.997,39.558,108.5
	c10.3,29.016,14.852,55.293,13.938,80.34c-0.256,7.178-0.862,14.228-1.596,21.222c-0.462,4.339-0.948,8.643-1.589,12.917
	c-4.278,29.647-12.187,58.163-21.171,87.215c-15.867-29.404-43.357-50.416-74.536-56.833c9.863-4.714,17.198-11.533,21.87-20.41
	c13.058-24.835,2.818-61.292-7.575-90.285l-70.72-191.976l-3.122,8.462l68.307,185.438c9.976,27.888,19.916,62.842,7.883,85.738
	c-5.517,10.474-14.979,17.499-28.96,21.486l0.573,5.619c35.654,3.22,67.671,26.719,83.777,60.771
	c-1.563,4.976-3.151,10.005-4.739,15.023L500.072,648.32l2.818,3.745h283.793l0.214-5.748
	C786.896,646.317,773.891,645.408,768.271,644.879 M506.887,646.309l48.336-152.579c0.897-2.81,1.768-5.616,2.665-8.429
	c0.026,0.06,0.051,0.145,0.077,0.217l58.883,160.792H506.887z M679.822,646.309h-6.234h-50.497L563.49,483.549
	c-0.888-2.361-1.844-4.681-2.87-6.96c8.48-27.145,16.483-54.904,21.487-83.526c0.692-3.958,1.383-7.911,1.947-11.892
	c1.563-10.974,2.613-22.08,3.032-33.334c0.376-10.155-0.128-20.462-1.511-31.091c51.351,137.955,112.258,293.806,133.24,311.979
	c7.481,6.478,15.193,11.559,22.922,15.104c2.032,0.934,4.005,1.754,5.977,2.48H679.822z"/>
<path fill="#FFFFFF" d="M261.472,381.171l-95.755,265.138h6.243l91.463-253.254C262.74,389.101,262.032,385.159,261.472,381.171"/>
<path fill="#FFFFFF" d="M394.778,29.383l-6.226-0.034l-122.63,339.499c0.465,4.329,0.969,8.637,1.584,12.907L392.488,35.732
	L394.778,29.383z"/>
<path fill="#FFFFFF" d="M453.05,35.728l2.34-6.366l0.582-1.577l-2.75-3.854l-30.454-0.166l-146.35-0.752h-1.229h-0.026l-0.012,5.738
	h0.012l1.23,0.016c14.578,0.159,39.544,3.14,51.982,20.446c10.215,14.219,10.197,35.646-0.08,63.666
	c-3.707,10.035-9.189,25.16-16.013,43.961C268.407,277.859,151.874,599.262,122.821,624.42c-7.053,6.106-14.296,10.88-21.521,14.193
	c-7.87,3.613-14.821,5.431-24.032,6.273c-5.633,0.512-18.626,1.434-18.626,1.434l0.209,5.744h283.802l2.796-3.728l-49.519-156.325
	c-1.593-5.035-3.186-10.031-4.74-15.031c16.116-34.052,48.132-57.551,83.791-60.771l0.55-5.619
	c-13.963-3.979-23.434-11.003-28.951-21.495c-12.033-22.887-2.11-57.841,7.878-85.703l68.308-185.454l3.117-8.464L453.05,35.728z
	 M171.951,646.309h-6.243h-30.991H97.82c1.961-0.713,3.946-1.537,5.973-2.48c7.729-3.537,15.445-8.626,22.923-15.096
	c20.986-18.181,81.894-174.024,133.245-311.97c-1.392,10.603-1.869,20.927-1.503,31.074c0.402,11.255,1.46,22.36,3.015,33.334
	c0.572,3.981,1.259,7.934,1.96,11.875c4.991,28.621,13.002,56.398,21.478,83.551c-1.034,2.271-1.985,4.607-2.878,6.977
	l-59.587,162.734H171.951z M338.658,646.309H228.679l58.883-160.774c0.026-0.082,0.061-0.167,0.095-0.227
	c0.892,2.806,1.767,5.612,2.651,8.404L338.658,646.309z M348.914,301.459c-10.381,28.976-20.62,65.44-7.563,90.268
	c4.659,8.877,12.007,15.704,21.888,20.418c-31.192,6.418-58.669,27.427-74.559,56.81c-8.984-29.037-16.887-57.543-21.183-87.199
	c-0.603-4.265-1.111-8.578-1.572-12.899c-0.742-7.012-1.337-14.053-1.593-21.23c-0.927-25.057,3.639-51.326,13.92-80.35
	c15.277-41.495,28.993-79.306,39.574-108.5c6.819-18.809,12.302-33.913,15.996-43.968c10.966-29.865,10.743-53.054-0.649-68.917
	c-5.885-8.178-14.125-13.511-22.87-16.94l78.243,0.411l6.234,0.016l27.986,0.159l26.269,0.14l-26.269,71.296l-3.126,8.502
	L348.914,301.459z"/>
</svg>
