<?xml version="1.0" encoding="utf-8"?>
<!-- Generator: Adobe Illustrator 16.0.0, SVG Export Plug-In . SVG Version: 6.00 Build 0)  -->
<!DOCTYPE svg PUBLIC "-//W3C//DTD SVG 1.1//EN" "http://www.w3.org/Graphics/SVG/1.1/DTD/svg11.dtd">
<svg version="1.1" id="Camada_1" xmlns="http://www.w3.org/2000/svg" xmlns:xlink="http://www.w3.org/1999/xlink" x="0px" y="0px"
	 width="32.5px" height="41.138px" viewBox="0 0 32.5 41.138" enable-background="new 0 0 32.5 41.138" xml:space="preserve">
<path fill-rule="evenodd" clip-rule="evenodd" fill="#FFFFFF" d="M22.966,0.992H12.768H9.367c-4.674,0-8.5,3.764-8.5,8.364v10.036
	v13.383c0,4.599,3.826,8.362,8.5,8.362h5.1c4.675,0,8.5-3.764,8.5-8.362v-5.019h8.5v-8.364v-1.672V9.356
	C31.466,4.756,27.641,0.992,22.966,0.992 M22.966,14.374v3.347v1.882v1.464h-1.479h-0.01h-6.671v10.369
	c0,0.737-0.612,1.34-1.36,1.34h-2.72c-0.748,0-1.36-0.603-1.36-1.34V19.603V10.82v-0.127c0-0.735,0.612-1.337,1.36-1.337h2.72h0.007
	h8.024c0.819,0,1.488,0.657,1.488,1.464V14.374z"/>
</svg>
